<?xml version="1.0"?><svg width="640" height="480" xmlns="http://www.w3.org/2000/svg">
 <title>Black and White Sunglass Frames</title>
 <metadata id="metadata7">image/svg+xml</metadata>
 <g>
  <g id="g4808">
   <path fill="#000000" stroke="#000000" stroke-width="1px" id="path2830" d="m506.347931,136.485275c-50.779175,0.366379 -99.713959,17.501938 -149.555786,24.353607c-20.802887,2.859741 -42.242889,3.56134 -63.080688,0.901993c-27.704437,-3.535721 -54.527954,-12.92836 -82.213959,-17.137726c-24.74231,-3.761826 -49.795853,-7.689056 -74.694366,-7.847275c-43.510788,-0.276474 -85.59441,14.430344 -128.250371,22.369247c0,13.471176 -2.53413,30.761108 3.843329,40.228531c6.57803,9.765121 17.67494,18.696304 20.55353,31.930206c6.826321,31.383987 16.517509,62.14888 28.90852,91.641769c6.021629,14.332397 17.387421,24.325287 30.078178,31.208588c30.560753,16.575653 66.732597,19.013031 100.26104,13.800293c47.745697,-7.423035 73.647552,-46.098328 93.409729,-90.288605c7.397186,-17.96344 8.222198,-38.694672 17.96344,-55.111313c5.785889,-9.751099 19.222015,-5.646729 28.824738,-5.68248c9.602722,-0.035767 17.740814,17.206421 20.720673,28.683105c10.546753,40.616699 28.13205,83.708984 63.080994,104.991058c52.189911,31.781036 134.410004,25.836121 168.271149,-31.479218c13.251892,-22.431091 16.912598,-49.648407 23.561218,-75.045105c4.047668,-15.461029 7.663025,-33.893219 22.057495,-42.393387c5.809265,-3.43042 1.732605,-17.119019 2.590027,-25.075134c0.934326,-8.669907 2.735596,-16.336761 -8.689331,-18.039719c-19.928467,-2.970566 -39.259216,-12.005371 -59.655151,-15.063141c-19.328186,-2.897705 -38.265259,-7.087524 -57.984406,-6.945297zm-335.706696,14.431763c14.414032,-0.099014 28.767548,1.039993 42.777969,4.239319c83.475967,19.061752 85.163864,56.190598 50.798843,132.952652c-28.002365,62.549347 -86.009247,78.221802 -144.459229,63.229004c-26.943741,-6.91098 -45.368019,-27.215546 -54.057396,-55.020996c-9.170895,-29.346497 -16.108143,-60.526978 -14.537804,-91.371078c2.103031,-41.304581 45.37899,-47.109497 76.365402,-50.871933c14.218796,-1.726532 28.698013,-3.058029 43.112213,-3.156967zm304.793091,0c14.414154,0.099014 28.893433,1.430435 43.112183,3.156967c30.986389,3.762436 74.262451,9.567352 76.365295,50.871933c1.570374,30.844101 -5.36676,62.024582 -14.537659,91.371078c-8.689392,27.80545 -27.113892,48.110016 -54.057556,55.020996c-58.44986,14.992798 -116.456879,-0.679657 -144.459137,-63.229004c-34.365021,-76.762054 -32.677094,-113.890778 50.798859,-132.952652c14.010559,-3.199326 28.3638,-4.338226 42.778015,-4.239319z"/>
   <path opacity="0.85" fill="#000000" stroke="#000000" stroke-width="1px" id="path2832" d="m127.518013,154.104996c28.436989,-3.453003 57.864983,-5.321991 85.885994,1.077011c83.475998,19.061996 85.158981,56.194992 50.793991,132.957001c-28.001999,62.548981 -85.979004,78.225983 -144.429001,63.233978c-26.943596,-6.91098 -45.378593,-27.287994 -54.068001,-55.093994c-9.170998,-29.345978 -16.146297,-60.509003 -14.575996,-91.352997c2.1031,-41.304993 45.406197,-47.057999 76.393013,-50.820999l0,0l0,0z"/>
   <path opacity="0.85" fill="#000000" stroke="#000000" stroke-width="1px" id="path2832-1" d="m518.529785,154.105011c-28.437469,-3.453003 -57.864868,-5.321564 -85.885742,1.076996c-83.476105,19.061752 -85.159607,56.195007 -50.794556,132.957092c28.00235,62.549286 85.979065,78.225983 144.428955,63.23349c26.943665,-6.911072 45.378662,-27.287689 54.068176,-55.093109c9.170898,-29.346466 16.146423,-60.509399 14.575806,-91.353455c-2.102783,-41.304565 -45.406189,-47.058395 -76.392639,-50.820953l0,-0.000061z"/>
  </g>
  <title>Layer 1</title>
 </g>
</svg>
