<?xml version="1.0" encoding="UTF-8"?>
<svg width="352px" height="75px" viewBox="0 0 352 75" version="1.1" xmlns="http://www.w3.org/2000/svg" xmlns:xlink="http://www.w3.org/1999/xlink">
    <!-- Generator: Sketch 46.2 (44496) - http://www.bohemiancoding.com/sketch -->
    <title>Rectangle 2</title>
    <desc>Created with Sketch.</desc>
    <defs>
        <path d="M37.4979537,6.10297403e-14 L291.298857,6.10297403e-14 L314.502046,6.10297403e-14 L314.502046,-7.10542736e-15 C335.211594,2.58777375e-14 352,16.7884057 352,37.4979537 L352,37.4979537 L352,37.4979537 C352,58.2075017 335.211594,74.9959074 314.502046,74.9959074 L305.758431,74.9959074 L37.4979537,74.9959074 L37.4979537,74.9959074 C16.7884057,74.9959074 2.53618816e-15,58.2075017 0,37.4979537 L0,37.4979537 L0,37.4979537 C-2.53618816e-15,16.7884057 16.7884057,6.77530948e-14 37.4979537,6.39488462e-14 Z" id="path-1"></path>
        <mask id="mask-2" maskContentUnits="userSpaceOnUse" maskUnits="objectBoundingBox" x="0" y="0" width="352" height="74.9959074" fill="white">
            <use xlink:href="#path-1"></use>
        </mask>
    </defs>
    <g id="Page-1" stroke="none" stroke-width="1" fill="none" fill-rule="evenodd" fill-opacity="0" stroke-dasharray="9,5">
        <g id="Desktop-HD" transform="translate(-544.000000, -728.000000)" stroke="#000000" stroke-width="14" fill="#614848">
            <g id="Group-2" transform="translate(544.000000, 728.000000)">
                <use id="Rectangle-2" mask="url(#mask-2)" xlink:href="#path-1"></use>
            </g>
        </g>
    </g>
</svg>